<?xml version="1.0" encoding="UTF-8" standalone="no"?><!-- Generator: Gravit.io --><svg xmlns="http://www.w3.org/2000/svg" xmlns:xlink="http://www.w3.org/1999/xlink" style="isolation:isolate" viewBox="0 0 560 315" width="560pt" height="315pt"><defs><clipPath id="_clipPath_vhBJ369BjpXIZtJoYaiOdUq158D6lVsz"><rect width="560" height="315"/></clipPath></defs><g clip-path="url(#_clipPath_vhBJ369BjpXIZtJoYaiOdUq158D6lVsz)"><path d="M 239 45 L 343 45 C 376.115 45 403 71.885 403 105 L 403 209 C 403 242.115 376.115 269 343 269 L 239 269 C 205.885 269 179 242.115 179 209 L 179 105 C 179 71.885 205.885 45 239 45 Z" style="stroke:none;fill:#FFCC00;stroke-miterlimit:10;"/><path d=" M 245.356 119.638 Q 229.358 115.789 225.028 127.577 Q 219.374 142.492 243.431 149.95 L 240.785 154.4 Q 243.311 177.014 246.318 174.367 L 246.318 177.134 L 257.023 180.983 Q 258.828 191.448 275.186 188.441 Q 275.908 197.943 279.998 202.754 Q 284.088 207.566 284.088 207.566 L 284.088 207.566 L 279.998 202.754 Q 282.524 203.837 284.088 205.16 Q 285.892 209.13 284.088 217.549 Q 288.418 226.451 292.748 217.549 Q 292.989 217.549 291.906 213.58 Q 295.755 215.505 297.078 210.814 Q 295.875 206.964 296.236 203.957 Q 301.649 199.507 301.408 195.898 Q 315.361 196.861 317.887 186.035 Q 329.435 176.893 331.48 174.367 Q 344.831 176.653 348.921 174.367 Q 360.588 157.407 357.341 150.912 Q 350.364 144.296 342.065 142.612 Q 334.246 143.935 331.48 147.303 Q 332.682 140.327 323.902 140.086 L 323.902 137.32 Q 325.225 135.876 325.105 133.711 L 323.902 108.331 Q 319.571 90.77 288.899 92.093 Q 269.894 92.213 254.257 101.114 Q 243.191 107.489 245.356 119.638 Z " fill="rgb(255,255,255)" vector-effect="non-scaling-stroke" stroke-width="1" stroke="rgb(0,0,0)" stroke-linejoin="miter" stroke-linecap="square" stroke-miterlimit="3"/><path d=" M 247.401 122.284 Q 231.523 117.713 226.952 128.659 Q 224.306 143.214 247.401 148.386 L 243.431 154.4 L 245.356 169.917 Q 245.837 172.683 248.243 172.563 L 248.243 175.45 L 258.828 179.179 Q 261.233 187.478 265.564 186.396 L 277.592 186.396 Q 277.111 200.95 286.253 202.754 Q 288.779 211.295 286.253 217.309 Q 288.297 221.519 289.981 217.309 Q 287.576 203.957 289.019 202.754 L 291.665 202.754 Q 293.47 204.799 292.507 210.693 Q 293.229 212.498 294.673 210.693 Q 292.628 205.401 293.951 202.754 Q 299.845 198.785 299.484 192.41 Q 313.317 196.019 315.602 184.952 Q 328.112 174.488 330.277 171.601 Q 343.027 174.006 347.357 172.563 Q 355.897 161.737 355.537 152.355 Q 348.079 144.657 341.463 145.138 Q 333.164 147.424 328.232 153.077 Q 330.397 142.732 327.149 143.214 L 322.097 142.011 L 321.135 136.598 L 321.135 136.598 Q 323.541 135.997 322.819 130.103 L 322.097 109.053 L 322.097 109.053 Q 317.286 91.972 286.974 94.498 Q 254.858 97.265 248.243 111.098 L 247.401 122.284 Z " fill="rgb(0,0,0)" vector-effect="non-scaling-stroke" stroke-width="1" stroke="rgb(0,0,0)" stroke-linejoin="miter" stroke-linecap="square" stroke-miterlimit="3"/><path d=" M 248.243 127.577 Q 233.327 121.081 230.441 130.945 Q 229.599 140.567 247.401 144.296 Q 242.108 138.162 249.806 139.004 Q 249.085 127.336 248.243 127.577 Z " fill="rgb(255,204,0)" vector-effect="non-scaling-stroke" stroke-width="1" stroke="rgb(0,0,0)" stroke-linejoin="miter" stroke-linecap="square" stroke-miterlimit="3"/><path d=" M 289.019 123.407 L 289.019 127.577 Q 288.217 130.063 293.109 129.742 L 308.425 130.383 Q 311.232 129.822 310.991 127.577 L 310.991 123.407 Q 310.35 121.803 308.425 121.883 L 293.109 121.322 Q 288.297 120.921 289.019 123.407 Z " fill="rgb(255,204,0)" vector-effect="non-scaling-stroke" stroke-width="1" stroke="rgb(0,0,0)" stroke-linejoin="miter" stroke-linecap="square" stroke-miterlimit="3"/><path d=" M 252.814 134.794 Q 251.668 130.535 251.178 126.816 C 249.307 112.632 254.584 104.345 267.007 101.956 Q 261.835 116.15 265.564 131.546 L 252.814 134.794 Z " fill="rgb(155,69,228)" vector-effect="non-scaling-stroke" stroke-width="1" stroke="rgb(0,0,0)" stroke-linejoin="miter" stroke-linecap="square" stroke-miterlimit="3"/><path d=" M 270.856 131.546 Q 266.165 111.338 272.781 102.076 Q 288.418 95.701 297.319 103.52 Q 300.446 110.015 299.604 111.338 L 289.26 115.909 Q 286.253 116.631 286.493 121.562 L 286.493 129.742 L 270.856 131.546 Z " fill="rgb(155,69,228)" vector-effect="non-scaling-stroke" stroke-width="1" stroke="rgb(0,0,0)" stroke-linejoin="miter" stroke-linecap="square" stroke-miterlimit="3"/><path d=" M 298.161 98.227 Q 304.776 106.407 304.055 112.06 Q 312.475 116.871 312.715 120.48 L 312.715 131.546 L 318.489 132.508 L 318.489 132.508 L 318.489 112.06 Q 315.843 98.227 298.161 98.227 Z " fill="rgb(155,69,228)" vector-effect="non-scaling-stroke" stroke-width="1" stroke="rgb(0,0,0)" stroke-linejoin="miter" stroke-linecap="square" stroke-miterlimit="3"/><circle vector-effect="non-scaling-stroke" cx="293.53681787052506" cy="125.82471891154358" r="1.9585217860878856" fill="rgb(0,0,0)"/><path d=" M 295.996 133.35 L 301.128 137.921 L 306.501 133.992 L 295.996 133.35 Z " fill="rgb(0,0,0)"/><circle vector-effect="non-scaling-stroke" cx="299.78281488398545" cy="125.82471891154358" r="1.9585217860878856" fill="rgb(0,0,0)"/><circle vector-effect="non-scaling-stroke" cx="306.3663174991226" cy="125.82471891154358" r="1.9585217860878856" fill="rgb(0,0,0)"/><path d=" M 316.765 134.794 Q 272.981 130.383 254.137 137.761 L 256.623 141.209 L 250.849 142.011 L 252.814 145.138 L 247.401 155.643 L 249.005 167.11 L 251.731 164.223 L 252.372 172.242 L 257.505 174.488 L 257.505 174.488 L 255.821 169.917 Q 254.056 167.591 256.623 165.186 L 263.439 155.643 Q 263.84 153.558 268.33 154.921 L 278.595 157.006 Q 289.18 161.577 299.123 159.332 L 302.411 154.921 L 308.425 154.4 L 310.991 156.044 Q 316.604 149.549 323.902 154.921 L 325.105 146.742 L 318.489 145.138 L 316.765 134.794 Z " fill="rgb(255,255,255)" vector-effect="non-scaling-stroke" stroke-width="1" stroke="rgb(0,0,0)" stroke-linejoin="miter" stroke-linecap="square" stroke-miterlimit="3"/><path d=" M 291.665 133.35 Q 262.156 136.478 260.071 139.525 L 261.835 141.209 L 256.623 143.615 L 258.828 147.143 L 251.731 158.931 L 258.828 156.044 L 261.274 158.45 Q 253.174 168.393 255.821 169.917 L 257.505 174.488 L 252.372 172.242 L 251.731 164.223 L 249.005 167.11 L 247.401 156.044 L 252.814 145.138 L 250.849 142.011 L 256.623 141.209 L 254.137 137.921 Q 268.651 132.228 291.665 133.35 Z " fill="rgb(185,185,185)" fill-opacity="0.5"/><path d=" M 265.844 157.407 L 257.986 168.072 L 264.642 182.426 L 279.076 182.426 L 279.076 182.426 Q 280.118 177.455 283.406 172.964 Q 279.958 168.313 273.623 174.488 L 273.623 174.488 Q 273.543 169.917 276.991 168.634 Q 280.599 166.95 284.929 169.917 Q 299.203 180.742 305.298 182.426 Q 314.279 183.629 323.902 172.964 Q 336.812 159.572 339.458 160.374 Q 341.704 159.412 344.35 161.016 Q 335.77 163.421 332.642 168.072 Q 343.869 170.398 345.152 168.634 Q 352.209 158.61 351.647 154.4 Q 347.157 149.629 341.463 149.067 Q 333.204 153.237 328.392 157.407 Q 323.421 161.898 321.135 163.181 Q 322.298 160.615 323.902 158.129 Q 317.807 152.034 312.715 157.407 L 314.6 159.572 Q 309.227 158.931 307.703 157.407 L 304.015 157.407 Q 299.364 163.983 296.477 164.223 L 296.477 164.223 L 296.878 162.62 Q 285.09 164.384 278.113 159.572 L 265.844 157.407 Z " fill="rgb(255,204,0)" vector-effect="non-scaling-stroke" stroke-width="1" stroke="rgb(0,0,0)" stroke-linejoin="miter" stroke-linecap="square" stroke-miterlimit="3"/><path d=" M 301.128 178.096 Q 309.387 181.624 317.887 177.134 Q 308.505 185.554 301.128 178.096 Z " fill="rgb(255,255,255)"/><path d=" M 329.756 159.572 Q 338.416 150.832 342.506 150.27 Q 347.959 151.794 350.044 153.879 L 343.227 152.676 L 343.227 152.676 Q 329.756 160.214 329.756 159.572 Z " fill="rgb(255,255,255)"/><path d=" M 309.868 161.737 Q 314.199 160.214 316.123 161.737 Q 312.755 162.459 309.868 161.737 Z " fill="rgb(0,0,0)" vector-effect="non-scaling-stroke" stroke-width="1" stroke="rgb(0,0,0)" stroke-linejoin="miter" stroke-linecap="square" stroke-miterlimit="3"/><path d=" M 301.609 165.506 Q 300.727 163.822 306.26 161.898 Q 303.213 166.068 301.609 165.506 Z " fill="rgb(0,0,0)" vector-effect="non-scaling-stroke" stroke-width="1" stroke="rgb(0,0,0)" stroke-linejoin="miter" stroke-linecap="square" stroke-miterlimit="3"/><path d=" M 285.812 174.488 Q 275.467 197.342 289.019 199.266 Q 298.081 199.908 294.392 184.912 Q 293.991 183.629 294.392 180.582 L 291.264 178.096 Q 287.335 185.634 289.019 190.125 Q 285.17 188.601 288.177 176.653 L 285.812 174.488 Z " fill="rgb(227,34,73)" vector-effect="non-scaling-stroke" stroke-width="1" stroke="rgb(0,0,0)" stroke-linejoin="miter" stroke-linecap="square" stroke-miterlimit="3"/><path d=" M 296.878 182.025 L 297.599 186.396 L 302.411 189.884 Q 309.868 190.445 311.633 185.153 Q 302.892 186.596 296.878 182.025 Z " fill="rgb(255,204,0)" vector-effect="non-scaling-stroke" stroke-width="1" stroke="rgb(0,0,0)" stroke-linejoin="miter" stroke-linecap="square" stroke-miterlimit="3"/><path d=" M 261.274 168.072 L 266.566 158.931 Q 271.538 159.332 273.222 160.134 L 268.17 160.855 L 268.17 160.855 L 261.274 168.072 Z " fill="rgb(255,255,255)"/><ellipse vector-effect="non-scaling-stroke" cx="293.19247574372656" cy="149.373299062181" rx="7.064773695672045" ry="10.249342932738159" fill="rgb(0,0,0)"/><ellipse vector-effect="non-scaling-stroke" cx="310.57581063926074" cy="147.20542584464422" rx="4.209493140138136" ry="6.106995160045244" fill="rgb(0,0,0)"/><ellipse vector-effect="non-scaling-stroke" cx="292.2690352081346" cy="153.3124210046894" rx="3.87270117481944" ry="5.618388376836208" fill="rgb(235,235,235)"/><ellipse vector-effect="non-scaling-stroke" cx="311.77210932610126" cy="149.06747760012408" rx="2.2644721240154695" ry="3.2852221968381627" fill="rgb(235,235,235)"/><circle vector-effect="non-scaling-stroke" cx="292.8042680087929" cy="196.21400304100035" r="1.3832721400746095" fill="rgb(255,255,255)"/><circle vector-effect="non-scaling-stroke" cx="290.7632973329588" cy="195.52236697096296" r="0.9021340043964869" fill="rgb(255,255,255)"/><circle vector-effect="non-scaling-stroke" cx="292.32312987311474" cy="194.5300195661269" r="0.9021340043964869" fill="rgb(255,255,255)"/></g></svg>