<svg xmlns="http://www.w3.org/2000/svg" xmlns:xlink="http://www.w3.org/1999/xlink" style="isolation:isolate" viewBox="654.794 279.307 560.411 543.385" width="560.411pt" height="543.385pt">
    <defs>
        <clipPath id="_clipPath_CjuXVsoKzCHgcB3byk9Sj1LTI164KVyy">
            <rect x="654.794" y="279.307" width="560.411" height="543.385"/>
        </clipPath>
    </defs>
    <g clip-path="url(#_clipPath_CjuXVsoKzCHgcB3byk9Sj1LTI164KVyy)">
        <path d=" M 745.266 395.693 Q 678.766 379.693 660.766 428.693 Q 637.266 490.693 737.266 521.693 L 726.266 540.193 Q 736.766 634.193 749.266 623.193 L 749.266 634.693 L 793.766 650.693 Q 801.266 694.193 869.266 681.693 Q 872.266 721.193 889.266 741.193 Q 906.266 761.193 906.266 761.193 L 906.266 761.193 L 889.266 741.193 Q 899.766 745.693 906.266 751.193 Q 913.766 767.693 906.266 802.693 Q 924.266 839.693 942.266 802.693 Q 943.266 802.693 938.766 786.193 Q 954.766 794.193 960.266 774.693 Q 955.266 758.693 956.766 746.193 Q 979.266 727.693 978.266 712.693 Q 1036.266 716.693 1046.766 671.693 Q 1094.766 633.693 1103.266 623.193 Q 1158.766 632.693 1175.766 623.193 Q 1224.266 552.693 1210.766 525.693 Q 1181.766 498.193 1147.266 491.193 Q 1114.766 496.693 1103.266 510.693 Q 1108.266 481.693 1071.766 480.693 L 1071.766 469.193 Q 1077.266 463.193 1076.766 454.193 L 1071.766 348.693 Q 1053.766 275.693 926.266 281.193 Q 847.266 281.693 782.266 318.693 Q 736.266 345.193 745.266 395.693 Z " fill="rgba(255,255,255, 0)" vector-effect="non-scaling-stroke" stroke-width="1" stroke="rgb(0,0,0)" stroke-linejoin="miter" stroke-linecap="square" stroke-miterlimit="3"/>
        <path d=" M 753.766 406.693 Q 687.766 387.693 668.766 433.193 Q 657.766 493.693 753.766 515.193 L 737.266 540.193 L 745.266 604.693 Q 747.266 616.193 757.266 615.693 L 757.266 627.693 L 801.266 643.193 Q 811.266 677.693 829.266 673.193 L 879.266 673.193 Q 877.266 733.693 915.266 741.193 Q 925.766 776.693 915.266 801.693 Q 923.766 819.193 930.766 801.693 Q 920.766 746.193 926.766 741.193 L 937.766 741.193 Q 945.266 749.693 941.266 774.193 Q 944.266 781.693 950.266 774.193 Q 941.766 752.193 947.266 741.193 Q 971.766 724.693 970.266 698.193 Q 1027.766 713.193 1037.266 667.193 Q 1089.266 623.693 1098.266 611.693 Q 1151.266 621.693 1169.266 615.693 Q 1204.766 570.693 1203.266 531.693 Q 1172.266 499.693 1144.766 501.693 Q 1110.266 511.193 1089.766 534.693 Q 1098.766 491.693 1085.266 493.693 L 1064.266 488.693 L 1060.266 466.193 L 1060.266 466.193 Q 1070.266 463.693 1067.266 439.193 L 1064.266 351.693 L 1064.266 351.693 Q 1044.266 280.693 918.266 291.193 Q 784.766 302.693 757.266 360.193 L 753.766 406.693 Z " fill="rgb(0,0,0)" vector-effect="non-scaling-stroke" stroke-width="1" stroke="rgb(0,0,0)" stroke-linejoin="miter" stroke-linecap="square" stroke-miterlimit="3"/>
        <path d=" M 757.266 428.693 Q 695.266 401.693 683.266 442.693 Q 679.766 482.693 753.766 498.193 Q 731.766 472.693 763.766 476.193 Q 760.766 427.693 757.266 428.693 Z " fill="rgb(255,204,0)" vector-effect="non-scaling-stroke" stroke-width="1" stroke="rgb(0,0,0)" stroke-linejoin="miter" stroke-linecap="square" stroke-miterlimit="3"/>
        <path d=" M 926.766 411.359 L 926.766 428.693 Q 923.433 439.026 943.766 437.693 L 1007.433 440.359 Q 1019.099 438.026 1018.099 428.693 L 1018.099 411.359 Q 1015.433 404.693 1007.433 405.026 L 943.766 402.693 Q 923.766 401.026 926.766 411.359 Z " fill="rgb(255,204,0)" vector-effect="non-scaling-stroke" stroke-width="1" stroke="rgb(0,0,0)" stroke-linejoin="miter" stroke-linecap="square" stroke-miterlimit="3"/>
        <path d=" M 776.266 458.693 Q 771.505 440.988 769.467 425.531 C 761.692 366.57 783.625 332.124 835.266 322.193 Q 813.766 381.193 829.266 445.193 L 776.266 458.693 Z " fill="rgb(155,69,228)" vector-effect="non-scaling-stroke" stroke-width="1" stroke="rgb(0,0,0)" stroke-linejoin="miter" stroke-linecap="square" stroke-miterlimit="3"/>
        <path d=" M 851.266 445.193 Q 831.766 361.193 859.266 322.693 Q 924.266 296.193 961.266 328.693 Q 974.266 355.693 970.766 361.193 L 927.766 380.193 Q 915.266 383.193 916.266 403.693 L 916.266 437.693 L 851.266 445.193 Z " fill="rgb(155,69,228)" vector-effect="non-scaling-stroke" stroke-width="1" stroke="rgb(0,0,0)" stroke-linejoin="miter" stroke-linecap="square" stroke-miterlimit="3"/>
        <path d=" M 964.766 306.693 Q 992.266 340.693 989.266 364.193 Q 1024.266 384.193 1025.266 399.193 L 1025.266 445.193 L 1049.266 449.193 L 1049.266 449.193 L 1049.266 364.193 Q 1038.266 306.693 964.766 306.693 Z " fill="rgb(155,69,228)" vector-effect="non-scaling-stroke" stroke-width="1" stroke="rgb(0,0,0)" stroke-linejoin="miter" stroke-linecap="square" stroke-miterlimit="3"/>
        <circle vector-effect="non-scaling-stroke" cx="945.5450708742922" cy="421.4102677518284" r="8.141203703703582" fill="rgb(0,0,0)"/>
        <path d=" M 955.766 452.693 L 977.099 471.693 L 999.433 455.359 L 955.766 452.693 Z " fill="rgb(0,0,0)"/>
        <circle vector-effect="non-scaling-stroke" cx="971.5084961374223" cy="421.4102677518284" r="8.141203703703582" fill="rgb(0,0,0)"/>
        <circle vector-effect="non-scaling-stroke" cx="998.8748681912946" cy="421.4102677518284" r="8.141203703703582" fill="rgb(0,0,0)"/>
        <path d=" M 1042.099 458.693 Q 860.099 440.359 781.766 471.026 L 792.099 485.359 L 768.099 488.693 L 776.266 501.693 L 753.766 545.359 L 760.433 593.026 L 771.766 581.026 L 774.433 614.359 L 795.766 623.693 L 795.766 623.693 L 788.766 604.693 Q 781.433 595.026 792.099 585.026 L 820.433 545.359 Q 822.099 536.693 840.766 542.359 L 883.433 551.026 Q 927.433 570.026 968.766 560.693 L 982.433 542.359 L 1007.433 540.193 L 1018.099 547.026 Q 1041.433 520.026 1071.766 542.359 L 1076.766 508.359 L 1049.266 501.693 L 1042.099 458.693 Z " fill="rgb(255,255,255)" vector-effect="non-scaling-stroke" stroke-width="1" stroke="rgb(0,0,0)" stroke-linejoin="miter" stroke-linecap="square" stroke-miterlimit="3"/>
        <path d=" M 937.766 452.693 Q 815.099 465.693 806.433 478.359 L 813.766 485.359 L 792.099 495.359 L 801.266 510.026 L 771.766 559.026 L 801.266 547.026 L 811.433 557.026 Q 777.766 598.359 788.766 604.693 L 795.766 623.693 L 774.433 614.359 L 771.766 581.026 L 760.433 593.026 L 753.766 547.026 L 776.266 501.693 L 768.099 488.693 L 792.099 485.359 L 781.766 471.693 Q 842.099 448.026 937.766 452.693 Z " fill="rgb(185,185,185)" fill-opacity="0.5"/>
        <path d=" M 830.433 552.693 L 797.766 597.026 L 825.433 656.693 L 885.433 656.693 L 885.433 656.693 Q 889.766 636.026 903.433 617.359 Q 889.099 598.026 862.766 623.693 L 862.766 623.693 Q 862.433 604.693 876.766 599.359 Q 891.766 592.359 909.766 604.693 Q 969.099 649.693 994.433 656.693 Q 1031.766 661.693 1071.766 617.359 Q 1125.433 561.693 1136.433 565.026 Q 1145.766 561.026 1156.766 567.693 Q 1121.099 577.693 1108.099 597.026 Q 1154.766 606.693 1160.099 599.359 Q 1189.433 557.693 1187.099 540.193 Q 1168.433 520.359 1144.766 518.026 Q 1110.433 535.359 1090.433 552.693 Q 1069.766 571.359 1060.266 576.693 Q 1065.099 566.026 1071.766 555.693 Q 1046.433 530.359 1025.266 552.693 L 1033.099 561.693 Q 1010.766 559.026 1004.433 552.693 L 989.099 552.693 Q 969.766 580.026 957.766 581.026 L 957.766 581.026 L 959.433 574.359 Q 910.433 581.693 881.433 561.693 L 830.433 552.693 Z " fill="rgb(255,204,0)" vector-effect="non-scaling-stroke" stroke-width="1" stroke="rgb(0,0,0)" stroke-linejoin="miter" stroke-linecap="square" stroke-miterlimit="3"/>
        <path d=" M 977.099 638.693 Q 1011.433 653.359 1046.766 634.693 Q 1007.766 669.693 977.099 638.693 Z " fill="rgb(255,255,255)"/>
        <path d=" M 1096.099 561.693 Q 1132.099 525.359 1149.099 523.026 Q 1171.766 529.359 1180.433 538.026 L 1152.099 533.026 L 1152.099 533.026 Q 1096.099 564.359 1096.099 561.693 Z " fill="rgb(255,255,255)"/>
        <path d=" M 1013.433 570.693 Q 1031.433 564.359 1039.433 570.693 Q 1025.433 573.693 1013.433 570.693 Z " fill="rgb(0,0,0)" vector-effect="non-scaling-stroke" stroke-width="1" stroke="rgb(0,0,0)" stroke-linejoin="miter" stroke-linecap="square" stroke-miterlimit="3"/>
        <path d=" M 979.099 586.359 Q 975.433 579.359 998.433 571.359 Q 985.766 588.693 979.099 586.359 Z " fill="rgb(0,0,0)" vector-effect="non-scaling-stroke" stroke-width="1" stroke="rgb(0,0,0)" stroke-linejoin="miter" stroke-linecap="square" stroke-miterlimit="3"/>
        <path d=" M 913.433 623.693 Q 870.433 718.693 926.766 726.693 Q 964.433 729.359 949.099 667.026 Q 947.433 661.693 949.099 649.026 L 936.099 638.693 Q 919.766 670.026 926.766 688.693 Q 910.766 682.359 923.266 632.693 L 913.433 623.693 Z " fill="rgb(227,34,73)" vector-effect="non-scaling-stroke" stroke-width="1" stroke="rgb(0,0,0)" stroke-linejoin="miter" stroke-linecap="square" stroke-miterlimit="3"/>
        <path d=" M 959.433 655.026 L 962.433 673.193 L 982.433 687.693 Q 1013.433 690.026 1020.766 668.026 Q 984.433 674.026 959.433 655.026 Z " fill="rgb(255,204,0)" vector-effect="non-scaling-stroke" stroke-width="1" stroke="rgb(0,0,0)" stroke-linejoin="miter" stroke-linecap="square" stroke-miterlimit="3"/>
        <path d=" M 811.433 597.026 L 833.433 559.026 Q 854.099 560.693 861.099 564.026 L 840.099 567.026 L 840.099 567.026 L 811.433 597.026 Z " fill="rgb(255,255,255)"/>
        <ellipse vector-effect="non-scaling-stroke" cx="944.1137059449118" cy="519.2972503226345" rx="29.36692468043441" ry="42.60457516339895" fill="rgb(0,0,0)"/>
        <ellipse vector-effect="non-scaling-stroke" cx="1016.3729330005001" cy="510.28581241413707" rx="17.498064809205687" ry="25.385620915032803" fill="rgb(0,0,0)"/>
        <ellipse vector-effect="non-scaling-stroke" cx="940.2751387347257" cy="535.67143332917" rx="16.098084469488867" ry="23.354575163398977" fill="rgb(235,235,235)"/>
        <ellipse vector-effect="non-scaling-stroke" cx="1021.3457198079916" cy="518.0260084925687" rx="9.412981246326979" ry="13.656045751633911" fill="rgb(235,235,235)"/>
        <circle vector-effect="non-scaling-stroke" cx="942.5" cy="714.0051751592355" r="5.75" fill="rgb(255,255,255)"/>
        <circle vector-effect="non-scaling-stroke" cx="934.016071894998" cy="711.1301751592356" r="3.75" fill="rgb(255,255,255)"/>
        <circle vector-effect="non-scaling-stroke" cx="940.5" cy="707.0051751592355" r="3.75" fill="rgb(255,255,255)"/>
    </g>
</svg>
